<?xml version="1.0" encoding="iso-8859-1"?>
<!-- Generator: Adobe Illustrator 17.1.0, SVG Export Plug-In . SVG Version: 6.00 Build 0)  -->
<!DOCTYPE svg PUBLIC "-//W3C//DTD SVG 1.1//EN" "http://www.w3.org/Graphics/SVG/1.1/DTD/svg11.dtd">
<svg version="1.1" fill="#FFFBFE" id="Capa_1" xmlns="http://www.w3.org/2000/svg" xmlns:xlink="http://www.w3.org/1999/xlink" x="0px" y="0px"
	 viewBox="0 0 246.002 246.002" style="enable-background:new 0 0 246.002 246.002;" xml:space="preserve">
<path d="M181.668,238.47c0,4.142-3.358,7.5-7.5,7.5h-103c-4.142,0-7.5-3.358-7.5-7.5v-16c0-4.142,3.358-7.5,7.5-7.5h103
	c4.142,0,7.5,3.358,7.5,7.5V238.47z M242.75,34.554c-2.977-2.045-6.986-1.683-9.545,0.87l-73.489,73.28L130.212,5.471
	c-0.92-3.22-3.863-5.439-7.212-5.439s-6.291,2.221-7.211,5.44L86.287,108.787L12.799,35.412c-2.557-2.553-6.568-2.918-9.545-0.874
	c-2.978,2.045-4.074,5.922-2.609,9.224l66,148.75c1.203,2.711,3.89,4.458,6.855,4.458h99c2.966,0,5.652-1.747,6.855-4.458
	l66-148.734C246.821,40.476,245.725,36.6,242.75,34.554z"/>
<g>
</g>
<g>
</g>
<g>
</g>
<g>
</g>
<g>
</g>
<g>
</g>
<g>
</g>
<g>
</g>
<g>
</g>
<g>
</g>
<g>
</g>
<g>
</g>
<g>
</g>
<g>
</g>
<g>
</g>
</svg>
